
        <svg xmlns="http://www.w3.org/2000/svg" xmlns:xlink="http://www.w3.org/1999/xlink" version="1.1" width="2813.537024868094" height="3255.7760931698267" viewBox="0 0 2813.537024868094 3255.7760931698267">
			
			<g transform="scale(12.788804658491337) translate(10, 10)">
				<defs id="SvgjsDefs1483"/><g id="SvgjsG1484" featureKey="nRdZyp-0" transform="matrix(0.4091464331325445,0,0,0.4091464331325445,31.817797145644086,-6.157508354901326)" fill="#fff"><defs xmlns="http://www.w3.org/2000/svg"/><g xmlns="http://www.w3.org/2000/svg"><path class="fil0" d="M243.61 297.14c-22.56,13.31 -48.85,20.97 -76.94,20.97 -83.7,0 -151.56,-67.86 -151.56,-151.56 0,-80.88 63.35,-146.95 143.14,-151.32l0 67.54c-42.55,4.22 -75.78,40.12 -75.78,83.78 0,46.5 37.7,84.2 84.2,84.2 14.26,0 27.7,-3.55 39.47,-9.81l37.47 56.21zm53.01 -168.3l8.47 0 0.51 1.93 -13.48 0 4.5 -1.93zm8.33 -0.5l-7.16 0 4.5 -1.93 2.11 0 0.55 1.93zm-0.69 -2.43l-0.79 0 0.7 -0.3 0.09 0.3zm-13.32 5.37l14.79 0 0.47 1.93 -19.76 0 4.5 -1.93zm-5.68 2.43l21.06 0 0.44 1.93 -25.99 0 4.5 -1.93zm-5.68 2.43l27.28 0 0.4 1.93 -32.18 0 4.5 -1.93zm-5.68 2.43l33.46 0 0.37 1.93 -38.33 0 4.5 -1.93zm-5.67 2.43l39.59 0 0.33 1.93 -44.43 0 4.5 -1.93zm-5.68 2.43l45.69 0 0.3 1.93 -50.49 0 4.5 -1.93zm-5.68 2.43l51.74 0 0.26 1.93 -51.78 0 -0.4 -1.85 0.19 -0.08zm0.32 2.43l51.75 0 0.23 1.93 -51.61 0 -0.37 -1.93zm0.45 2.43l51.58 0 0.2 1.93 -51.47 0 -0.31 -1.93zm0.39 2.44l51.44 0 0.17 1.93 -51.35 0 -0.26 -1.93zm0.32 2.43l51.33 0 0.13 1.93 -51.25 0 -0.21 -1.93zm0.26 2.43l51.24 0 0.1 1.93 -51.18 0 -0.16 -1.93zm0.19 2.43l51.17 0 0.07 1.93 -51.13 0 -0.11 -1.93zm0.13 2.43l51.12 0 0.04 1.93 -51.1 0 -0.06 -1.93zm0.06 2.43l51.1 0 0 1.2 -0 0.72 -51.09 0 0 -0.72 -0.01 -1.2zm0 2.43l51.09 0 -0.03 1.93 -51.11 0 0.05 -1.93zm-0.06 2.43l51.12 0 -0.06 1.93 -51.15 0 0.1 -1.93zm-0.13 2.43l51.17 0 -0.09 1.93 -51.22 0 0.15 -1.93zm-0.19 2.43l51.23 0 -0.13 1.93 -51.3 0 0.2 -1.93zm-0.26 2.43l51.33 0 -0.16 1.93 -51.41 0 0.25 -1.93zm-0.32 2.43l51.44 0 -0.2 1.93 -51.55 0 0.3 -1.93zm-0.39 2.43l51.58 0 -0.23 1.93 -51.71 0 0.36 -1.93zm-0.46 2.43l51.75 0 -0.26 1.93 -51.89 0 0.41 -1.93zm-0.52 2.43l51.94 0 -0.29 1.93 -52.11 0 0.47 -1.93zm-0.59 2.43l52.16 0 -0.33 1.93 -52.35 0 0.52 -1.93zm-0.66 2.43l52.4 0 -0.36 1.93 -52.62 0 0.58 -1.93zm-0.74 2.43l52.68 0 -0.39 1.93 -52.92 0 0.63 -1.93zm-0.81 2.43l52.98 0 -0.43 1.93 -53.25 0 0.7 -1.93zm-0.89 2.43l53.32 0 -0.46 1.93 -53.62 0 0.76 -1.93zm-0.97 2.44l53.7 0 -0.5 1.93 -54.02 0 0.82 -1.93zm-1.05 2.43l54.11 0 -0.54 1.93 -54.45 0 0.89 -1.93zm-1.13 2.43l54.55 0 -0.57 1.93 -54.94 0 0.96 -1.93zm-1.22 2.43l55.04 0 -0.61 1.93 -55.46 0 1.03 -1.93zm-1.31 2.43l55.57 0 -0.65 1.93 -56.03 0 1.11 -1.93zm-1.41 2.43l56.16 0 -0.69 1.93 -56.65 0 1.19 -1.93zm-1.51 2.43l56.79 0 -0.73 1.93 -57.33 0 1.28 -1.93zm-1.62 2.43l57.48 0 -0.78 1.93 -58.07 0c0.46,-0.64 0.92,-1.28 1.37,-1.93zm-1.73 2.43l58.24 0 -0.81 1.93 -58.89 0c0.5,-0.63 0.98,-1.28 1.46,-1.93zm-1.86 2.43l59.06 0 -0.85 1.93 -59.78 0 1.57 -1.93zm-1.99 2.43l59.96 0 -0.89 1.93 -0 0 -60.75 0c0.57,-0.64 1.13,-1.28 1.69,-1.93zm-2.14 2.43l60.97 0 -0.94 1.93 -61.83 0c0.61,-0.63 1.22,-1.28 1.81,-1.93zm-2.3 2.43l62.06 0 -0.99 1.93 -62.98 0 -0.01 -0.02c0.65,-0.63 1.29,-1.26 1.92,-1.91zm-1.57 2.43l62.38 0 -1.04 1.93 -60.06 0 -1.28 -1.93zm1.62 2.43l59.44 0 -1.09 1.93 -57.07 0 -1.28 -1.93zm1.62 2.43l56.44 0 -1.13 1.93 -54.02 0 -1.28 -1.93zm1.62 2.43l53.38 0 -1.19 1.93 -50.91 0 -1.28 -1.93zm1.62 2.43l50.25 0 -1.24 1.93 -47.73 0 -1.28 -1.93zm1.62 2.43l47.06 0 -1.3 1.93 -44.47 0 -1.28 -1.93zm1.62 2.43l43.79 0 -1.36 1.93 -41.14 0 -1.29 -1.93zm1.62 2.44l40.44 0 -1.42 1.93 -37.74 0 -1.29 -1.93zm1.62 2.43l37.02 0 -1.48 1.93 -34.26 0 -1.29 -1.93zm1.63 2.43l33.52 0 -1.55 1.93 -30.68 0 -1.28 -1.93zm1.62 2.43l29.93 0 -1.63 1.93 -27.02 0 -1.28 -1.93zm1.62 2.43l26.25 0 -1.69 1.93 -23.28 0 -1.28 -1.93zm1.62 2.43l22.48 0 -1.78 1.93 -19.42 0 -1.28 -1.93zm1.62 2.43l18.61 0 -1.87 1.93 -15.46 0 -1.28 -1.93zm1.62 2.43l14.63 0 -1.95 1.93 -11.39 0 -1.28 -1.93zm1.62 2.43l10.53 0c-0.68,0.65 -1.35,1.3 -2.04,1.93l-7.2 0 -1.28 -1.93zm1.62 2.43l6.31 0 -2.15 1.93 -2.87 0 -1.28 -1.93zm1.62 2.43l1.96 0 -1.24 1.07 -0.71 -1.07zm-94.05 -101.52l0 39.65c1.31,0.1 2.6,0.09 3.91,0.01l0 -39.56c-1.31,-0.08 -2.61,-0.06 -3.91,-0.11zm-9.63 -1.43c-32.58,-8.81 -32.58,-54.74 0,-63.55l0 -6.34c0,-6.37 9.63,-6.37 9.63,0l0 4.92c1.31,-0.06 2.6,-0.06 3.91,0.01l0 -4.93c0,-6.37 9.63,-6.37 9.63,0l0 6.63c13.85,4.26 24.92,16 24.92,31.49 0,8.81 -13.4,8.81 -13.4,0 0,-7.88 -4.97,-13.86 -11.52,-17.11l0 38.42c32.58,8.81 32.57,54.74 0,63.55l0 6.34c0,6.37 -9.63,6.37 -9.63,0l0 -4.92c-1.31,0.06 -2.6,0.06 -3.91,-0.01l0 4.93c0,6.37 -9.63,6.37 -9.63,0l0 -6.63c-13.85,-4.26 -24.92,-16 -24.92,-31.49 0,-8.81 13.4,-8.81 13.4,0 0,7.88 4.97,13.86 11.52,17.11l0 -38.42zm13.54 -51.54c-1.31,-0.1 -2.6,-0.09 -3.91,-0.01l0 39.56c1.31,0.08 2.61,0.06 3.91,0.11l0 -39.65zm-13.54 2.31c-15,7.06 -15,27.84 0,34.91l0 -34.91zm23.17 87.99c15,-7.07 15,-27.85 0,-34.91l0 34.91zm130.85 -96.02c5.91,16.19 9.13,33.67 9.13,51.91 0,49.58 -23.81,93.6 -60.61,121.25l-37.48 -56.21c18.76,-15.44 30.72,-38.84 30.72,-65.04 0,-8.81 -1.35,-17.31 -3.87,-25.29l62.1 -26.61zm-134.02 -99.42c55.92,3.06 103.76,36.44 127.38,83.98l-62.1 26.62c-13.07,-23.6 -37.13,-40.26 -65.28,-43.06l0 -67.54zm8.13 8.85l0 51.62c24.74,4.49 46.56,18.95 60.43,39.87l47.46 -20.35c-22.61,-39.41 -62.65,-65.93 -107.9,-71.15z" style="fill: #ffffff;"/></g></g><g id="SvgjsG1485" featureKey="Q4qmbg-0" transform="matrix(4.813709847571853,0,0,4.813709847571853,0.09626549755324261,115.3102891248433)" fill="#fff"><path d="M4.5 5.960000000000001 l-0.000019531 3.46 l-0.1 0.42 c0 -0.01334 0.13334 -0.05668 0.4 -0.13002 s0.63332 -0.11 1.1 -0.11 c0.69334 0 1.3333 0.10334 1.92 0.31 s1.09 0.52332 1.51 0.94998 s0.74666 0.97 0.98 1.63 s0.35 1.45 0.35 2.37 c0 0.72 -0.08334 1.3967 -0.25 2.03 s-0.44332 1.19 -0.82998 1.67 s-0.89332 0.86 -1.52 1.14 s-1.4 0.42 -2.32 0.42 l-0.53 0 l-0.94 -0.04 l-1.23 -0.12 l-1.4 -0.24 l0 -11.3 l-1.66 0 l1.28 -2.44 z M5.46 17.44 c0.32 0 0.62338 -0.039942 0.91004 -0.11994 s0.53332 -0.22 0.73998 -0.42 s0.37332 -0.46666 0.49998 -0.8 s0.19 -0.74668 0.19 -1.24 s-0.06 -0.91668 -0.18 -1.27 s-0.28 -0.64 -0.48 -0.86 s-0.43666 -0.38 -0.71 -0.48 s-0.56334 -0.15 -0.87 -0.15 c-0.16 0 -0.34666 0.01334 -0.56 0.04 s-0.38 0.05332 -0.5 0.07998 l0 5.14 c0.14666 0.02666 0.29666 0.04666 0.45 0.06 s0.32334 0.02 0.51 0.02 z M11.842666666666666 9.56 l3.04 -0.000039062 l0 5.44 c0 0.46666 0.04 0.85666 0.12 1.17 s0.2 0.56 0.36 0.74 s0.35666 0.30666 0.59 0.38 s0.51 0.11 0.83 0.11 c0.38666 0 0.73332 -0.02 1.04 -0.06 l-0.04 -0.36 l0 -7.42 l3.04 0 l0 9.88 c-0.49334 0.17334 -1.0833 0.32668 -1.77 0.46002 s-1.39 0.2 -2.11 0.2 c-0.68 0 -1.33 -0.05334 -1.95 -0.16 s-1.1633 -0.33332 -1.63 -0.67998 s-0.83666 -0.85 -1.11 -1.51 s-0.41 -1.55 -0.41 -2.67 l0 -5.52 z M31.40533333333333 11.06 l-0.65988 0.83992 c0.09334 0.18666 0.16 0.39 0.2 0.61 s0.06 0.43666 0.06 0.65 c0 0.48 -0.07666 0.95334 -0.23 1.42 s-0.40668 0.89 -0.76002 1.27 s-0.81 0.68666 -1.37 0.92 s-1.2467 0.35668 -2.06 0.37002 c-0.05334 0.04 -0.12 0.09666 -0.2 0.17 s-0.12 0.15668 -0.12 0.25002 c0 0.10666 0.07666 0.18666 0.23 0.24 s0.30334 0.08668 0.45 0.10002 c0.22666 0.02666 0.46332 0.05 0.70998 0.07 s0.48332 0.04334 0.70998 0.07 c0.52 0.05334 0.98 0.17 1.38 0.35 s0.73334 0.41 1 0.69 s0.47 0.6 0.61 0.96 s0.21 0.74666 0.21 1.16 c0 0.72 -0.13666 1.3167 -0.41 1.79 s-0.63 0.84668 -1.07 1.12 s-0.94334 0.46 -1.51 0.56 s-1.15 0.13 -1.75 0.09 c-0.48 -0.02666 -0.95666 -0.10666 -1.43 -0.24 s-0.92334 -0.3 -1.35 -0.5 s-0.82 -0.43334 -1.18 -0.7 s-0.66666 -0.54666 -0.92 -0.84 l1.36 -1.82 c0.4 0.29334 0.76666 0.53334 1.1 0.72 s0.64668 0.33332 0.94002 0.43998 s0.56 0.18332 0.8 0.22998 s0.46666 0.08332 0.68 0.10998 c0.2 0.01334 0.40334 0.01334 0.61 0 s0.39666 -0.05668 0.57 -0.13002 s0.31334 -0.17334 0.42 -0.3 s0.16 -0.30332 0.16 -0.52998 c0 -0.32 -0.11666 -0.55 -0.35 -0.69 s-0.61668 -0.23 -1.15 -0.27 c-0.2 -0.01334 -0.40334 -0.03 -0.61 -0.05 s-0.41 -0.03666 -0.61 -0.05 c-0.78666 -0.06666 -1.3967 -0.28332 -1.83 -0.64998 s-0.65 -0.83 -0.65 -1.39 c0 -0.30666 0.06 -0.58332 0.18 -0.82998 s0.29334 -0.50332 0.52 -0.76998 c-0.64 -0.38666 -1.1167 -0.87666 -1.43 -1.47 s-0.47 -1.21 -0.47 -1.85 c0 -0.52 0.1 -1.01 0.3 -1.47 s0.49 -0.86 0.87 -1.2 s0.84666 -0.60666 1.4 -0.8 s1.1833 -0.29 1.89 -0.29 c0.4 0 0.81334 0.05 1.24 0.15 s0.79332 0.23 1.1 0.39 c0 0.01334 0.12334 -0.02666 0.37 -0.12 s0.52332 -0.19334 0.82998 -0.3 c0.34666 -0.13334 0.75332 -0.27334 1.22 -0.42 l0 1.94 z M26.66553333333333 11.6 c-0.38666 0 -0.70668 0.13666 -0.96002 0.41 s-0.38 0.66334 -0.38 1.17 c0 0.56 0.12666 0.94666 0.38 1.16 s0.56668 0.32 0.94002 0.32 c0.44 0 0.77 -0.14666 0.99 -0.44 s0.33 -0.65334 0.33 -1.08 c0 -0.48 -0.11 -0.85666 -0.33 -1.13 s-0.54334 -0.41 -0.97 -0.41 z M37.108 9.44 c0.69334 0 1.3166 0.096622 1.87 0.28996 s1.0167 0.50668 1.39 0.94002 s0.66 0.99 0.86 1.67 s0.3 1.5 0.3 2.46 l0 0.31 l-0.04 0.63 l-5.6 0 l-0.42 -0.06 c0.01334 0.38666 0.05668 0.69666 0.13002 0.93 s0.18 0.41668 0.32 0.55002 s0.31 0.22668 0.51 0.28002 s0.42666 0.08668 0.68 0.10002 c0.41334 0.02666 0.77 -0.03334 1.07 -0.18 s0.58334 -0.44666 0.85 -0.9 c0.41334 0.13334 0.79334 0.26 1.14 0.38 c0.29334 0.10666 0.56 0.2 0.8 0.28 s0.36 0.11334 0.36 0.1 c-0.48 1 -1.0633 1.73 -1.75 2.19 s-1.51 0.69 -2.47 0.69 c-0.70666 0 -1.3467 -0.09334 -1.92 -0.28 s-1.06 -0.49 -1.46 -0.91 s-0.71 -0.96666 -0.93 -1.64 s-0.33 -1.4967 -0.33 -2.47 c0 -0.94666 0.11 -1.7567 0.33 -2.43 s0.53 -1.2267 0.93 -1.66 s0.88666 -0.75334 1.46 -0.96 s1.2133 -0.31 1.92 -0.31 z M38.208 13.440000000000001 l0.30004 0.04 c-0.02666 -0.46666 -0.15 -0.83 -0.37 -1.09 s-0.56334 -0.39 -1.03 -0.39 c-0.53334 0 -0.91668 0.13 -1.15 0.39 s-0.37668 0.62334 -0.43002 1.09 c0.06666 -0.01334 0.12666 -0.02334 0.18 -0.03 s0.11334 -0.01 0.18 -0.01 l2.32 0 z"/></g>
			</g>
		</svg>
	